# Blender 5.0.1
# www.blender.org
mtllib crate.mtl
o Wood_Box_low.005_Cube.007
v -0.890153 -0.889571 0.888230
v -0.890153 0.885354 0.888230
v -0.888979 -0.889571 -0.886695
v 0.885946 -0.889571 -0.885521
v -0.889982 0.627730 0.630607
v -0.889150 0.627730 -0.629070
v 0.628322 0.627730 -0.885691
v 0.885775 0.627730 -0.627897
v 0.884943 0.627730 0.631780
v 0.884943 -0.631947 0.631780
v -0.632529 0.627730 0.888401
v 0.628152 -0.889571 -0.628068
v 0.627319 -0.889571 0.631610
v -0.632359 -0.889571 0.630777
v -0.632359 0.885354 0.630777
v -0.781590 -0.601346 0.600077
v -0.781590 0.597129 0.600077
v -0.780797 -0.601346 -0.598397
v -0.780797 0.597129 -0.598398
v -0.600825 0.597129 -0.778131
v -0.600825 -0.601346 -0.778131
v 0.777383 0.597129 -0.597368
v 0.596619 0.597129 0.780841
v -0.601856 -0.601346 0.780049
v -0.601856 0.597129 0.780048
v -0.601736 -0.781199 0.600196
v -0.600945 0.776981 -0.598279
v 0.597530 0.776981 -0.597486
v 0.596738 0.776981 0.600988
v -0.888979 0.885354 -0.886695
v 0.884773 -0.889571 0.889404
v 0.884773 0.885354 0.889404
v -0.889982 -0.631947 0.630607
v -0.889150 -0.631947 -0.629070
v -0.631355 -0.631947 -0.886525
v -0.631355 0.627730 -0.886525
v 0.628322 -0.631947 -0.885691
v 0.885775 -0.631947 -0.627897
v 0.627148 -0.631947 0.889234
v 0.627148 0.627730 0.889234
v -0.632529 -0.631947 0.888401
v -0.631525 -0.889571 -0.628900
v 0.628152 0.885354 -0.628068
v -0.631525 0.885354 -0.628900
v 0.627319 0.885354 0.631610
v 0.597649 -0.601346 -0.777338
v 0.597649 0.597129 -0.777338
v 0.777383 -0.601346 -0.597367
v 0.776590 -0.601346 0.601108
v 0.776590 0.597129 0.601108
v 0.596619 -0.601346 0.780841
v 0.597530 -0.781199 -0.597486
v -0.600945 -0.781199 -0.598279
v 0.596738 -0.781199 0.600988
v -0.601736 0.776981 0.600196
v 0.885946 0.885354 -0.885521
vn -0.9501 -0.2202 -0.2208
vn -0.7171 -0.4931 0.4926
vn -0.7165 -0.4931 -0.4935
vn -0.2208 -0.2202 0.9501
vn -0.4935 0.4931 0.7164
vn -0.2208 0.2202 0.9501
vn -0.2196 0.2202 -0.9504
vn 0.4935 0.4931 -0.7164
vn -0.4926 0.4931 -0.7171
vn 0.9501 -0.2202 0.2208
vn 0.7164 0.4931 0.4935
vn 0.9501 0.2202 0.2208
vn -0.9504 0.2202 0.2196
vn -0.7165 0.4931 -0.4935
vn -0.7171 0.4931 0.4926
vn 0.2208 -0.2202 -0.9501
vn 0.2208 0.2202 -0.9501
vn -0.5777 0.5774 0.5770
vn -0.9501 0.2202 -0.2208
vn -0.5777 -0.5774 0.5770
vn -0.5770 0.5774 -0.5777
vn -0.5770 -0.5774 -0.5777
vn -0.9504 -0.2202 0.2196
vn 0.5777 0.5773 -0.5770
vn 0.5777 -0.5774 -0.5770
vn -0.2196 -0.2202 -0.9504
vn 0.5770 0.5774 0.5777
vn 0.5770 -0.5774 0.5777
vn 0.9504 -0.2202 -0.2196
vn 0.9504 0.2202 -0.2196
vn 0.2196 -0.2202 0.9504
vn 0.2196 0.2202 0.9504
vn 0.2200 -0.9503 0.2203
vn -0.2203 -0.9503 0.2200
vn -0.2200 -0.9503 -0.2203
vn 0.2203 -0.9503 -0.2200
vn -0.2203 0.9503 0.2200
vn 0.2200 0.9503 0.2203
vn 0.2203 0.9503 -0.2200
vn -0.2200 0.9503 -0.2203
vn 0.4935 -0.4931 -0.7165
vn 0.7165 -0.4931 0.4935
vn 0.7171 0.4931 -0.4926
vn -0.4935 -0.4931 0.7165
vn 0.4926 0.4931 0.7171
vn -0.4934 -0.7168 0.4927
vn 0.4934 -0.7168 -0.4927
vn 0.4927 -0.7168 0.4934
vn 0.4927 0.7168 0.4934
vn -0.4927 0.7168 -0.4934
vn -0.4934 0.7168 0.4928
vn -0.4926 -0.4931 -0.7171
vn 0.7171 -0.4931 -0.4926
vn 0.4926 -0.4931 0.7171
vn -0.4927 -0.7168 -0.4934
vn 0.4934 0.7168 -0.4928
vt 0.044575 0.045387
vt 0.261187 0.067768
vt 0.063784 0.067768
vt 0.605391 0.045387
vt 0.586182 0.265550
vt 0.605391 0.287931
vt 0.280396 0.621272
vt 0.063784 0.598891
vt 0.261187 0.598891
vt 0.369570 0.712069
vt 0.388779 0.932232
vt 0.369570 0.954613
vt 0.280396 0.287931
vt 0.063784 0.265550
vt 0.261187 0.265550
vt 0.044575 0.378728
vt 0.044575 0.621272
vt 0.000977 0.000977
vt 0.044575 0.287931
vt 0.000977 0.332341
vt 0.323994 0.000977
vt 0.323994 0.332341
vt 0.280396 0.045387
vt 0.000977 0.334318
vt 0.000977 0.665682
vt 0.323994 0.334318
vt 0.323994 0.665682
vt 0.280396 0.378728
vt 0.325972 0.667659
vt 0.325972 0.999023
vt 0.648990 0.667659
vt 0.648990 0.999023
vt 0.605391 0.712069
vt 0.605391 0.954613
vt 0.325972 0.000977
vt 0.648990 0.000977
vt 0.325972 0.332341
vt 0.369570 0.045387
vt 0.648989 0.332341
vt 0.369570 0.287931
vt 0.323994 0.999023
vt 0.280396 0.712069
vt 0.323994 0.667659
vt 0.000977 0.999023
vt 0.280396 0.954613
vt 0.000977 0.667659
vt 0.044575 0.954613
vt 0.044575 0.712069
vt 0.325972 0.334318
vt 0.369570 0.621272
vt 0.325972 0.665682
vt 0.648990 0.334318
vt 0.369570 0.378728
vt 0.648990 0.665682
vt 0.605392 0.378728
vt 0.605392 0.621272
vt 0.063784 0.401109
vt 0.388779 0.734450
vt 0.586182 0.932232
vt 0.586182 0.067768
vt 0.388779 0.265550
vt 0.261187 0.932232
vt 0.063784 0.734450
vt 0.261187 0.734450
vt 0.388779 0.401109
vt 0.586182 0.598891
vt 0.388779 0.598891
vt 0.261187 0.401109
vt 0.586182 0.734450
vt 0.388779 0.067768
vt 0.063784 0.932232
vt 0.586182 0.401109
s 1
usemtl Wood_Texture
f 5/1/1 19/2/2 17/3/3
f 40/4/4 51/5/5 39/6/6
f 37/7/7 21/8/8 46/9/9
f 8/10/10 48/11/11 38/12/12
f 34/13/13 16/14/14 18/15/15
f 36/16/16 21/8/8 35/17/17
f 2/18/18 33/19/19 1/20/20
f 30/21/21 5/1/1 2/18/18
f 3/22/22 6/23/23 30/21/21
f 1/20/20 34/13/13 3/22/22
f 30/24/21 35/17/17 3/25/22
f 56/26/24 36/16/16 30/24/21
f 4/27/25 7/28/26 56/26/24
f 3/25/22 37/7/7 4/27/25
f 56/29/24 38/12/12 4/30/25
f 32/31/27 8/10/10 56/29/24
f 31/32/28 9/33/29 32/31/27
f 4/30/25 10/34/30 31/32/28
f 2/35/18 40/4/4 32/36/27
f 1/37/20 11/38/31 2/35/18
f 31/39/28 41/40/32 1/37/20
f 4/41/25 42/42/33 3/43/22
f 31/44/28 12/45/34 4/41/25
f 1/46/20 13/47/35 31/44/28
f 3/43/22 14/48/36 1/46/20
f 30/49/21 43/50/37 56/51/24
f 2/52/18 44/53/38 30/49/21
f 32/54/27 15/55/39 2/52/18
f 56/51/24 45/56/40 32/54/27
f 17/3/3 18/15/15 16/14/14
f 20/57/41 46/9/9 21/8/8
f 22/58/42 49/59/43 48/11/11
f 23/60/44 24/61/45 51/5/5
f 52/62/46 26/63/47 53/64/48
f 27/65/49 29/66/50 28/67/51
f 10/34/30 48/11/11 49/59/43
f 42/42/33 52/62/46 53/64/48
f 36/16/16 47/68/52 20/57/41
f 41/40/32 51/5/5 24/61/45
f 43/50/37 27/65/49 28/67/51
f 34/13/13 19/2/2 6/23/23
f 8/10/10 50/69/53 22/58/42
f 14/48/36 53/64/48 26/63/47
f 37/7/7 47/68/52 7/28/26
f 40/4/4 25/70/54 23/60/44
f 45/56/40 28/67/51 29/66/50
f 10/34/30 50/69/53 9/33/29
f 12/45/34 54/71/55 52/62/46
f 41/40/32 25/70/54 11/38/31
f 44/53/38 55/72/56 27/65/49
f 13/47/35 26/63/47 54/71/55
f 15/55/39 29/66/50 55/72/56
f 5/1/1 16/14/14 33/19/19
f 32/36/27 39/6/6 31/39/28
f 5/1/1 6/23/23 19/2/2
f 40/4/4 23/60/44 51/5/5
f 37/7/7 35/17/17 21/8/8
f 8/10/10 22/58/42 48/11/11
f 34/13/13 33/19/19 16/14/14
f 36/16/16 20/57/41 21/8/8
f 2/18/18 5/1/1 33/19/19
f 30/21/21 6/23/23 5/1/1
f 3/22/22 34/13/13 6/23/23
f 1/20/20 33/19/19 34/13/13
f 30/24/21 36/16/16 35/17/17
f 56/26/24 7/28/26 36/16/16
f 4/27/25 37/7/7 7/28/26
f 3/25/22 35/17/17 37/7/7
f 56/29/24 8/10/10 38/12/12
f 32/31/27 9/33/29 8/10/10
f 31/32/28 10/34/30 9/33/29
f 4/30/25 38/12/12 10/34/30
f 2/35/18 11/38/31 40/4/4
f 1/37/20 41/40/32 11/38/31
f 31/39/28 39/6/6 41/40/32
f 4/41/25 12/45/34 42/42/33
f 31/44/28 13/47/35 12/45/34
f 1/46/20 14/48/36 13/47/35
f 3/43/22 42/42/33 14/48/36
f 30/49/21 44/53/38 43/50/37
f 2/52/18 15/55/39 44/53/38
f 32/54/27 45/56/40 15/55/39
f 56/51/24 43/50/37 45/56/40
f 17/3/3 19/2/2 18/15/15
f 20/57/41 47/68/52 46/9/9
f 22/58/42 50/69/53 49/59/43
f 23/60/44 25/70/54 24/61/45
f 52/62/46 54/71/55 26/63/47
f 27/65/49 55/72/56 29/66/50
f 10/34/30 38/12/12 48/11/11
f 42/42/33 12/45/34 52/62/46
f 36/16/16 7/28/26 47/68/52
f 41/40/32 39/6/6 51/5/5
f 43/50/37 44/53/38 27/65/49
f 34/13/13 18/15/15 19/2/2
f 8/10/10 9/33/29 50/69/53
f 14/48/36 42/42/33 53/64/48
f 37/7/7 46/9/9 47/68/52
f 40/4/4 11/38/31 25/70/54
f 45/56/40 43/50/37 28/67/51
f 10/34/30 49/59/43 50/69/53
f 12/45/34 13/47/35 54/71/55
f 41/40/32 24/61/45 25/70/54
f 44/53/38 15/55/39 55/72/56
f 13/47/35 14/48/36 26/63/47
f 15/55/39 45/56/40 29/66/50
f 5/1/1 17/3/3 16/14/14
f 32/36/27 40/4/4 39/6/6
